<svg width="3585" height="740" viewBox="0 0 3585 740" fill="none" xmlns="http://www.w3.org/2000/svg">
<path d="M0 368.5H3585" stroke="white" stroke-width="2"/>
<path d="M80 319L80 423.402" stroke="white" stroke-width="2"/>
<path d="M126 0L126 456.73" stroke="white" stroke-width="2"/>
<path d="M172.172 273.338L172.172 458.651" stroke="white" stroke-width="2"/>
<path d="M2948.71 274.296L2948.71 459.609" stroke="white" stroke-width="2"/>
<path d="M218.281 297.492L218.281 408.329" stroke="white" stroke-width="2"/>
<path d="M2994.82 298.45L2994.82 409.287" stroke="white" stroke-width="2"/>
<path d="M264.392 255.222L264.392 426.445" stroke="white" stroke-width="2"/>
<path d="M3040.93 256.18L3040.93 427.403" stroke="white" stroke-width="2"/>
<path d="M357.61 317.622L357.61 452.613" stroke="white" stroke-width="2"/>
<path d="M3134.15 318.58L3134.15 453.571" stroke="white" stroke-width="2"/>
<path d="M311.065 329L311.065 463.991" stroke="white" stroke-width="2"/>
<path d="M3087.6 332.958L3087.6 467.949" stroke="white" stroke-width="2"/>
<path d="M2902 327L2902 461.991" stroke="white" stroke-width="2"/>
<path d="M403.721 297.492L403.721 496.896" stroke="white" stroke-width="2"/>
<path d="M3180.26 298.45L3180.26 497.854" stroke="white" stroke-width="2"/>
<path d="M449.83 331.789L449.83 464.768" stroke="white" stroke-width="2"/>
<path d="M495.938 329.699L495.938 440.536" stroke="white" stroke-width="2"/>
<path d="M542.049 293.467L542.049 426.445" stroke="white" stroke-width="2"/>
<path d="M3272.58 294.425L3272.58 427.403" stroke="white" stroke-width="2"/>
<path d="M588.269 317.622L588.269 452.613" stroke="white" stroke-width="2"/>
<path d="M3365.8 318.58L3365.8 453.571" stroke="white" stroke-width="2"/>
<path d="M634.377 329.699L634.377 440.536" stroke="white" stroke-width="2"/>
<path d="M3411.91 330.657L3411.91 441.494" stroke="white" stroke-width="2"/>
<path d="M3319.26 329.958L3319.26 440.795" stroke="white" stroke-width="2"/>
<path d="M3226.26 309.958L3226.26 420.795" stroke="white" stroke-width="2"/>
<path d="M680.486 293.213L680.486 487.608" stroke="white" stroke-width="2"/>
<path d="M3458.02 294.171L3458.02 488.566" stroke="white" stroke-width="2"/>
<path d="M726.598 249.042L726.598 474.742" stroke="white" stroke-width="2"/>
<path d="M772.705 322.916L772.705 443.199" stroke="white" stroke-width="2"/>
<path d="M911.815 269.447L911.815 739.997" stroke="white" stroke-width="2"/>
<path d="M865.926 273.338L865.926 515.012" stroke="white" stroke-width="2"/>
<path d="M819 338L819 421.227" stroke="white" stroke-width="2"/>
<path d="M1004.25 305.918L1004.25 457.012" stroke="white" stroke-width="2"/>
<path d="M1050.47 327.814L1050.47 476.896" stroke="white" stroke-width="2"/>
<path d="M1096.58 319.699L1096.58 438.587" stroke="white" stroke-width="2"/>
<path d="M1235.91 255.222L1235.91 440.536" stroke="white" stroke-width="2"/>
<path d="M1282.02 243.338L1282.02 446.767" stroke="white" stroke-width="2"/>
<path d="M1143 255L1143 458.429" stroke="white" stroke-width="2"/>
<path d="M1328.13 215.57L1328.13 499.958" stroke="white" stroke-width="2"/>
<path d="M2576.85 243.57L2576.85 527.958" stroke="white" stroke-width="2"/>
<path d="M1374.24 263.467L1374.24 470.922" stroke="white" stroke-width="2"/>
<path d="M2622.96 291.467L2622.96 498.922" stroke="white" stroke-width="2"/>
<path d="M1420.35 297.622L1420.35 484.077" stroke="white" stroke-width="2"/>
<path d="M1467.07 315.801L1467.07 434.69" stroke="white" stroke-width="2"/>
<path d="M3505 332L3505 410.89" stroke="white" stroke-width="2"/>
<path d="M2715.79 323.801L2715.79 442.69" stroke="white" stroke-width="2"/>
<path d="M1189.37 303L1189.37 421.888" stroke="white" stroke-width="2"/>
<path d="M1513.68 292.329L1513.68 447.021" stroke="white" stroke-width="2"/>
<path d="M1559.79 273.338L1559.79 422.419" stroke="white" stroke-width="2"/>
<path d="M1605.9 305.544L1605.9 452.613" stroke="white" stroke-width="2"/>
<path d="M1652 255.222L1652 406.317" stroke="white" stroke-width="2"/>
<path d="M1698.12 272.039L1698.12 426.731" stroke="white" stroke-width="2"/>
<path d="M1790.33 225.222L1790.33 466.896" stroke="white" stroke-width="2"/>
<path d="M1836.44 243.338L1836.44 434.69" stroke="white" stroke-width="2"/>
<path d="M1882.55 287.622L1882.55 485.012" stroke="white" stroke-width="2"/>
<path d="M1744.61 0L1744.61 487.9" stroke="white" stroke-width="2"/>
<path d="M1928.77 252.626L1928.77 447.021" stroke="white" stroke-width="2"/>
<path d="M1974.88 319.699L1974.88 430.536" stroke="white" stroke-width="2"/>
<path d="M2020.99 317.622L2020.99 452.613" stroke="white" stroke-width="2"/>
<path d="M2067.27 306.447L2067.27 439.957" stroke="white" stroke-width="2"/>
<path d="M2762.5 318.763L2762.5 449.728" stroke="white" stroke-width="2"/>
<path d="M2160.32 309.699L2160.32 422.549" stroke="white" stroke-width="2"/>
<path d="M2114 324L2114 436.85" stroke="white" stroke-width="2"/>
<path d="M2808.61 302.66L2808.61 415.51" stroke="white" stroke-width="2"/>
<path d="M2253 303L2253 415.85" stroke="white" stroke-width="2"/>
<path d="M2206.43 272.039L2206.43 426.731" stroke="white" stroke-width="2"/>
<path d="M2669.54 279.447L2669.54 740" stroke="white" stroke-width="2"/>
<path d="M2299.65 317.622L2299.65 452.613" stroke="white" stroke-width="2"/>
<path d="M2345.76 335.699L2345.76 442.51" stroke="white" stroke-width="2"/>
<path d="M2391.87 333.789L2391.87 505.012" stroke="white" stroke-width="2"/>
<path d="M2438.09 311.583L2438.09 496.896" stroke="white" stroke-width="2"/>
<path d="M2484.2 273.789L2484.2 473.193" stroke="white" stroke-width="2"/>
<path d="M2530.31 293.699L2530.31 440.449" stroke="white" stroke-width="2"/>
<path d="M2855.53 309L2855.53 405.747" stroke="white" stroke-width="2"/>
<rect x="110.75" y="351.913" width="30.6251" height="29.17" fill="#6638B6"/>
<rect x="896.504" y="351.913" width="30.6251" height="29.17" fill="#6638B6"/>
<rect x="1729.78" y="351.913" width="30.6251" height="29.17" fill="#6638B6"/>
<rect x="2654.23" y="351.913" width="30.6251" height="29.17" fill="#6638B6"/>
<path d="M957.927 316L957.926 434.888" stroke="white" stroke-width="2.66667"/>
</svg>
