<svg width="1842" height="437" viewBox="0 0 1842 437" fill="none" xmlns="http://www.w3.org/2000/svg">
<path d="M-18 233.276H1862.31" stroke="white"/>
<path d="M23.9575 207.313L23.9575 262.072" stroke="white"/>
<path d="M48 0L48 280" stroke="white"/>
<path d="M72.3053 183.365L72.3053 280.56" stroke="white"/>
<path d="M1528.58 183.867L1528.58 281.062" stroke="white"/>
<path d="M96.4859 196.033L96.4859 254.166" stroke="white"/>
<path d="M1552.76 196.536L1552.76 254.669" stroke="white"/>
<path d="M120.672 173.862L120.672 263.668" stroke="white"/>
<path d="M1576.95 174.365L1576.95 264.17" stroke="white"/>
<path d="M169.564 206.591L169.564 277.393" stroke="white"/>
<path d="M1625.84 207.093L1625.84 277.895" stroke="white"/>
<path d="M145.151 212.558L145.151 283.361" stroke="white"/>
<path d="M1601.43 214.635L1601.43 285.437" stroke="white"/>
<path d="M1504.08 211.51L1504.08 282.312" stroke="white"/>
<path d="M193.749 196.033L193.749 300.619" stroke="white"/>
<path d="M1650.03 196.536L1650.03 301.122" stroke="white"/>
<path d="M217.933 214.021L217.933 283.767" stroke="white"/>
<path d="M242.117 212.925L242.117 271.058" stroke="white"/>
<path d="M266.3 193.922L266.3 263.668" stroke="white"/>
<path d="M1698.45 194.424L1698.45 264.17" stroke="white"/>
<path d="M290.544 206.591L290.544 277.393" stroke="white"/>
<path d="M1747.34 207.093L1747.34 277.895" stroke="white"/>
<path d="M314.727 212.925L314.727 271.058" stroke="white"/>
<path d="M1771.53 213.428L1771.53 271.561" stroke="white"/>
<path d="M1722.93 213.061L1722.93 271.194" stroke="white"/>
<path d="M1674.15 202.571L1674.15 260.705" stroke="white"/>
<path d="M338.911 193.789L338.911 295.748" stroke="white"/>
<path d="M1795.71 194.291L1795.71 296.25" stroke="white"/>
<path d="M363.097 170.621L363.097 288.999" stroke="white"/>
<path d="M387.28 209.367L387.28 272.455" stroke="white"/>
<path d="M460 181L460 437" stroke="white"/>
<path d="M436.174 183.365L436.174 310.121" stroke="white"/>
<path d="M411.562 217.279L411.562 260.931" stroke="white"/>
<path d="M508.723 200.452L508.723 279.7" stroke="white"/>
<path d="M532.969 211.937L532.969 290.129" stroke="white"/>
<path d="M557.15 207.68L557.15 270.036" stroke="white"/>
<path d="M630.228 173.862L630.228 271.058" stroke="white"/>
<path d="M654.412 167.63L654.412 274.327" stroke="white"/>
<path d="M581.496 173.746L581.496 280.444" stroke="white"/>
<path d="M678.599 153.065L678.599 302.225" stroke="white"/>
<path d="M1333.55 167.751L1333.55 316.911" stroke="white"/>
<path d="M702.781 178.187L702.781 286.996" stroke="white"/>
<path d="M1357.73 192.872L1357.73 301.681" stroke="white"/>
<path d="M726.964 196.102L726.964 293.896" stroke="white"/>
<path d="M751.469 205.636L751.469 267.992" stroke="white"/>
<path d="M1820.35 214.132L1820.35 255.509" stroke="white"/>
<path d="M1406.41 209.831L1406.41 272.188" stroke="white"/>
<path d="M605.813 198.922L605.813 261.278" stroke="white"/>
<path d="M775.913 193.324L775.913 274.459" stroke="white"/>
<path d="M800.1 183.365L800.1 261.557" stroke="white"/>
<path d="M824.282 200.256L824.282 277.392" stroke="white"/>
<path d="M848.469 173.862L848.469 253.11" stroke="white"/>
<path d="M872.651 182.682L872.651 263.818" stroke="white"/>
<path d="M921.02 158.127L921.02 284.884" stroke="white"/>
<path d="M945.205 167.63L945.205 267.993" stroke="white"/>
<path d="M969.387 190.856L969.387 294.386" stroke="white"/>
<path d="M897 0L897 296" stroke="white"/>
<path d="M993.631 172.501L993.631 274.46" stroke="white"/>
<path d="M1017.81 207.68L1017.81 265.814" stroke="white"/>
<path d="M1042 206.591L1042 277.393" stroke="white"/>
<path d="M1066.27 200.729L1066.27 270.755" stroke="white"/>
<path d="M1430.92 207.188L1430.92 275.879" stroke="white"/>
<path d="M1115.07 202.435L1115.07 261.624" stroke="white"/>
<path d="M1090.78 209.936L1090.78 269.125" stroke="white"/>
<path d="M1455.1 198.744L1455.1 257.933" stroke="white"/>
<path d="M1163.69 198.922L1163.69 258.111" stroke="white"/>
<path d="M1139.26 182.682L1139.26 263.818" stroke="white"/>
<path d="M1382 187L1382 437" stroke="white"/>
<path d="M1188.15 206.591L1188.15 277.393" stroke="white"/>
<path d="M1212.34 216.072L1212.34 272.094" stroke="white"/>
<path d="M1236.52 215.071L1236.52 304.876" stroke="white"/>
<path d="M1260.76 203.423L1260.76 300.619" stroke="white"/>
<path d="M1284.95 183.601L1284.95 288.187" stroke="white"/>
<path d="M1309.13 194.043L1309.13 271.013" stroke="white"/>
<path d="M1479.71 202.069L1479.71 252.812" stroke="white"/>
<rect x="40.0869" y="224.576" width="16.0627" height="15.2995" fill="#6638B6"/>
<rect x="452.213" y="224.576" width="16.0627" height="15.2995" fill="#6638B6"/>
<rect x="889.259" y="224.576" width="16.0627" height="15.2995" fill="#6638B6"/>
<rect x="1374.13" y="224.576" width="16.0627" height="15.2995" fill="#6638B6"/>
<path d="M484.425 205.74L484.425 268.097" stroke="white"/>
</svg>
